<svg width="65" height="64" viewBox="0 0 65 64" fill="none" xmlns="http://www.w3.org/2000/svg">
<path d="M8.5 15.3333C8.5 11.2832 11.7832 8 15.8333 8H41.8333C49.9335 8 56.5 14.5665 56.5 22.6667V22.6667H15.8333C11.7832 22.6667 8.5 19.3834 8.5 15.3333V15.3333Z" fill="#A5B4FC"/>
<path d="M8.5 31.9998C8.5 27.9497 11.7832 24.6665 15.8333 24.6665H41.8333C49.9335 24.6665 56.5 31.233 56.5 39.3332V39.3332H15.8333C11.7832 39.3332 8.5 36.0499 8.5 31.9998V31.9998Z" fill="#D9F99D"/>
<path d="M8.5 48.6668C8.5 44.6167 11.7832 41.3335 15.8333 41.3335H41.8333C49.9335 41.3335 56.5 47.9 56.5 56.0002V56.0002H15.8333C11.7832 56.0002 8.5 52.7169 8.5 48.6668V48.6668Z" fill="#694AFF"/>
</svg>
