<svg width="800" height="800" viewBox="0 0 800 800" fill="none" xmlns="http://www.w3.org/2000/svg">
<path d="M118 368.5C118 334.258 145.758 306.5 180 306.5V306.5V462.5C180 479.621 166.121 493.5 149 493.5V493.5C131.879 493.5 118 479.621 118 462.5V368.5Z" fill="#FF9899"/>
<path d="M257 378.5C257 338.736 224.765 306.5 185 306.5V306.5V457.5C185 477.382 201.118 493.5 221 493.5V493.5C240.882 493.5 257 477.382 257 457.5V378.5Z" fill="#FF6A6C"/>
<path d="M265 356.5C265 328.886 287.386 306.5 315 306.5H325V340.5C325 349.337 317.837 356.5 309 356.5H265V356.5Z" fill="#A4EE9F"/>
<path d="M402 378.5C402 338.736 369.765 306.5 330 306.5V306.5V457.5C330 477.382 346.118 493.5 366 493.5V493.5C385.882 493.5 402 477.382 402 457.5V378.5Z" fill="#89E780"/>
<path d="M410 356.5C410 328.886 432.386 306.5 460 306.5H470V340.5C470 349.337 462.837 356.5 454 356.5H410V356.5Z" fill="#CAA6FF"/>
<path d="M547 378.5C547 338.736 514.765 306.5 475 306.5V306.5V457.5C475 477.382 491.118 493.5 511 493.5V493.5C530.882 493.5 547 477.382 547 457.5V378.5Z" fill="#B881FF"/>
<path d="M605 406.5C577.386 406.5 555 384.114 555 356.5L555 306.5V306.5C582.614 306.5 605 328.886 605 356.5L605 406.5V406.5Z" fill="#FFD89A"/>
<path d="M682 378.5C682 338.736 649.765 306.5 610 306.5V306.5V457.5C610 477.382 626.118 493.5 646 493.5V493.5C665.882 493.5 682 477.382 682 457.5V378.5Z" fill="#FFC97C"/>
</svg>
