<svg width="800" height="800" viewBox="0 0 800 800" fill="none" xmlns="http://www.w3.org/2000/svg">
<path d="M216 218C216 167.742 256.742 127 307 127H400V309H307C256.742 309 216 268.258 216 218V218Z" fill="#FF6A6C"/>
<path d="M216 400C216 349.742 256.742 309 307 309H400V491H307C256.742 491 216 450.258 216 400V400Z" fill="#B881FF"/>
<path d="M216 582C216 531.742 256.742 491 307 491H400V581C400 631.81 358.307 673 307.497 673V673C257.239 673 216 632.258 216 582V582Z" fill="#89E780"/>
<path d="M400 127H493C543.258 127 584 167.742 584 218V218C584 268.258 543.258 309 493 309H400V127Z" fill="#FF9899"/>
<rect x="400" y="309" width="184" height="182" rx="91" fill="#89CAFF"/>
</svg>
