<svg width="800" height="800" viewBox="0 0 800 800" fill="none" xmlns="http://www.w3.org/2000/svg">
<path d="M170.515 181H618.485C628.71 181 637 189.29 637 199.515V529.485C637 539.71 628.71 548 618.485 548H170.515C160.29 548 152 539.71 152 529.485V199.515C152 189.29 160.29 181 170.515 181Z" stroke="#B7FCBF" stroke-width="8"/>
<path d="M76 405H197C203.627 405 209 410.373 209 417V623C209 629.627 203.627 635 197 635H76C69.3726 635 64 629.627 64 623V417C64 410.476 69.2061 405.168 75.6904 405.004L76 405Z" stroke="#D19BF3" stroke-width="8"/>
<path d="M506 289H724C730.627 289 736 294.373 736 301V593C736 599.627 730.627 605 724 605H506C499.373 605 494 599.627 494 593V301C494 294.373 499.373 289 506 289Z" stroke="#DCEB59" stroke-width="8"/>
</svg>
